# xmcd
#
# Track frame offsets:
#	150
#	106622
#	159210
#
# Disc length: 2729 seconds
#
# Revision: 1
# Processed by: cddbd v1.5.1PL0 Copyright (c) Steve Scherf et al.
# Submitted via: CDex 1.50Beta5
#
DISCID=110aa703
DTITLE=Leonard Bernstein - Symphony No.2. In C minor "Resurrection" -1
DYEAR=1900
DGENRE=Classical
TTITLE0=Symphony No.2-1: ュオ. Allegro Maestoso
TTITLE1=Symphony No.2-2: ュカ. Andante moderato
TTITLE2=Symphony No.2-3: ュキ. In ruhig fliessender Bewegung
EXTD=
EXTT0=
EXTT1=
EXTT2=
PLAYORDER=
